<svg width="25" height="24" viewBox="0 0 25 24" fill="none" xmlns="http://www.w3.org/2000/svg">
<path d="M15.81 12.7101C16.7904 11.9388 17.506 10.881 17.8572 9.68407C18.2085 8.48709 18.1779 7.21039 17.7698 6.03159C17.3617 4.85279 16.5963 3.83052 15.5801 3.10698C14.5639 2.38344 13.3475 1.99463 12.1 1.99463C10.8526 1.99463 9.63612 2.38344 8.61993 3.10698C7.60375 3.83052 6.83835 4.85279 6.43022 6.03159C6.02208 7.21039 5.99152 8.48709 6.34276 9.68407C6.69401 10.881 7.40961 11.9388 8.39 12.7101C6.71008 13.3832 5.24429 14.4995 4.1489 15.94C3.0535 17.3806 2.36957 19.0914 2.17 20.8901C2.15556 21.0214 2.16712 21.1543 2.20403 21.2812C2.24094 21.408 2.30247 21.5264 2.38511 21.6294C2.55202 21.8376 2.79479 21.971 3.06 22.0001C3.32522 22.0293 3.59116 21.9519 3.79933 21.785C4.00749 21.6181 4.14083 21.3753 4.17 21.1101C4.38959 19.1553 5.32169 17.3499 6.78822 16.0389C8.25475 14.7279 10.1529 14.0032 12.12 14.0032C14.0871 14.0032 15.9853 14.7279 17.4518 16.0389C18.9183 17.3499 19.8504 19.1553 20.07 21.1101C20.0972 21.3558 20.2144 21.5828 20.3991 21.7471C20.5838 21.9115 20.8228 22.0016 21.07 22.0001H21.18C21.4421 21.97 21.6817 21.8374 21.8466 21.6314C22.0114 21.4253 22.0881 21.1625 22.06 20.9001C21.8595 19.0963 21.1719 17.3811 20.0709 15.9383C18.9698 14.4955 17.4969 13.3796 15.81 12.7101ZM12.1 12.0001C11.3089 12.0001 10.5355 11.7655 9.87772 11.326C9.21993 10.8865 8.70723 10.2618 8.40448 9.53086C8.10173 8.79995 8.02252 7.99569 8.17686 7.21976C8.3312 6.44384 8.71217 5.73111 9.27158 5.1717C9.83099 4.61229 10.5437 4.23132 11.3196 4.07698C12.0956 3.92264 12.8998 4.00186 13.6307 4.30461C14.3616 4.60736 14.9864 5.12005 15.4259 5.77784C15.8654 6.43564 16.1 7.209 16.1 8.00012C16.1 9.06099 15.6786 10.0784 14.9284 10.8286C14.1783 11.5787 13.1609 12.0001 12.1 12.0001Z" fill="#666666"/>
</svg>
